HIERARCHY
ROOT Hips
{
  OFFSET -31.0397 87.5594 -96.7521
  CHANNELS 6 Xposition Yposition Zposition Zrotation Xrotation Yrotation
  JOINT RightUpLeg
  {
    OFFSET -8.9458 -8.66707 0.101652
    CHANNELS 3 Zrotation Xrotation Yrotation
    JOINT RightLeg
    {
      OFFSET 0 -44.4227 1.3727
      CHANNELS 3 Zrotation Xrotation Yrotation
      JOINT RightFoot
      {
        OFFSET 0.253549 -42.0924 -1.46059
        CHANNELS 3 Zrotation Xrotation Yrotation
        JOINT RightToes
        {
          OFFSET 0.04 -4.41509 8.4991
          CHANNELS 3 Zrotation Xrotation Yrotation
          End Site
          {
            OFFSET -0.08 -0.137448 9.77979
          }
        }
      }
    }
  }
  JOINT Spine
  {
    OFFSET 0 11.8905 0
    CHANNELS 3 Zrotation Xrotation Yrotation
    JOINT Spine1
    {
      OFFSET 0 25.6574 0.127663
      CHANNELS 3 Zrotation Xrotation Yrotation
      JOINT HEad
      {
        OFFSET 0 8.73416 0.011341
        CHANNELS 3 Zrotation Xrotation Yrotation
        End Site
        {
          OFFSET -0.29 12.7742 2.51395
        }
      }
      JOINT LeftShoulder1
      {
        OFFSET 8.99 -0.362252 -0.22
        CHANNELS 3 Zrotation Xrotation Yrotation
        JOINT LeftArm
        {
          OFFSET 10.2827 -0.00338 0.322123
          CHANNELS 3 Zrotation Xrotation Yrotation
          JOINT LeftForeArm
          {
            OFFSET 32.7669 0.099144 -1.42434
            CHANNELS 3 Zrotation Xrotation Yrotation
            JOINT LeftHand
            {
              OFFSET 27.5643 0.085362 1.02216
              CHANNELS 3 Zrotation Xrotation Yrotation
              End Site
              {
                OFFSET 16.7443 -0.6 1.50291
              }
            }
          }
        }
      }
      JOINT RightShoulder
      {
        OFFSET -8.99 -0.362252 -0.22
        CHANNELS 3 Zrotation Xrotation Yrotation
        JOINT RightArm
        {
          OFFSET -10.2827 -0.00338 0.322123
          CHANNELS 3 Zrotation Xrotation Yrotation
          JOINT RightForeArm
          {
            OFFSET -32.8971 0.099144 -1.42434
            CHANNELS 3 Zrotation Xrotation Yrotation
            JOINT RightHand
            {
              OFFSET -27.4921 0.085362 1.02216
              CHANNELS 3 Zrotation Xrotation Yrotation
              End Site
              {
                OFFSET -16.6312 -0.6 1.50291
              }
            }
          }
        }
      }
    }
  }
  JOINT LeftUpLeg
  {
    OFFSET 8.9458 -8.66707 0.101652
    CHANNELS 3 Zrotation Xrotation Yrotation
    JOINT LeftLeg
    {
      OFFSET 0 -44.4227 1.3727
      CHANNELS 3 Zrotation Xrotation Yrotation
      JOINT LeftFoot
      {
        OFFSET -0.253549 -42.0924 -1.46059
        CHANNELS 3 Zrotation Xrotation Yrotation
        JOINT LeftToes
        {
          OFFSET -0.04 -4.41509 8.4991
          CHANNELS 3 Zrotation Xrotation Yrotation
          End Site
          {
            OFFSET 0.08 -0.047448 9.77979
          }
        }
      }
    }
  }
}
MOTION
Frames:	19
Frame Time:	0.0166667
-23.9753 99.1426 -91.8004 2.40882 6.23302 175.064 -19.0557 7.61687 -2.0716 14.5112 16.284 3.73704 -0.711503 -2.87708 -0.120414 0.0462048 0.000533403 0.662642 5.28968 9.44864 4.62433 6.35605e-012 -5.55997e-009 -5.15096e-012 -34.8221 26.007 42.8626 -3.85145e-016 0 -1.49089e-016 168.715 -71.3452 -165.815 -89.2627 58.6143 -48.0865 3.68187 24.6323 3.77752 15.6866 7.82751 4.58568 80.8689 -14.7748 78.5554 50.1083 52.7763 65.8216 -4.57859 24.0382 -0.397261 21.5659 -16.9913 21.0379 5.39998 13.5859 -15.506 -24.2862 -3.07541 -1.4271 -1.53616e-009 1.56004e-007 -4.85535e-009 
-23.8545 98.7821 -91.7571 2.46191 6.34818 175.295 -18.8388 7.97515 -1.96148 13.5102 16.213 4.2029 -0.0155611 -2.71143 -0.117784 0.0462048 0.000533403 0.662642 5.41329 9.48858 4.59709 6.35648e-012 -5.55997e-009 -5.15101e-012 -33.9422 24.6715 41.7325 2.70223e-016 -3.97569e-016 -9.93923e-017 175.941 -73.7981 -159.204 -79.9637 60.6088 -54.9986 0.755708 30.0972 9.65807 12.0949 5.93853 -0.991466 84.329 -8.67178 77.5767 45.2062 52.7634 68.1991 -3.29215 25.3647 -0.31723 21.8994 -17.1625 19.9629 4.98697 15.6337 -12.56 -18.4315 -3.67893 -1.16375 -1.53616e-009 1.56004e-007 -4.85535e-009 
-23.8538 98.5131 -91.7564 2.51067 6.46401 175.514 -18.5893 7.88498 -1.83017 12.6366 16.5663 4.4874 0.615882 -2.55509 -0.114793 0.0462048 0.000533403 0.662642 5.55303 9.5201 4.50185 -8.0158e-005 -0.00120001 -0.00213999 -32.7262 23.0457 40.4407 2.17421e-016 -3.97569e-016 -1.98785e-016 -171.134 -76.5586 -147.605 -66.2852 61.9362 -65.1033 -3.18717 35.4644 16.7269 9.25063 4.79324 -5.44218 86.954 -4.10158 76.6194 38.4999 52.6436 71.484 -2.14322 24.243 0.824142 22.2104 -17.2205 18.543 4.37987 17.8909 -8.1444 -11.8556 -4.10874 -0.746567 -1.53617e-009 1.56004e-007 -4.85535e-009 
-23.9783 98.2484 -91.7816 2.57145 6.56187 175.629 -18.155 6.37209 -1.69853 11.5874 18.2114 4.09362 0.40254 -2.47985 -0.157606 0.0462048 0.000533403 0.662642 5.38545 9.9997 3.02648 -0.0224383 0.0348591 -0.11445 -30.3088 19.3968 39.5747 -1.2424e-016 7.95139e-016 1.98785e-016 -145.856 -78.9685 -126.625 -43.9582 60.8242 -79.1579 -3.68827 40.2907 23.6197 8.97791 4.48386 -5.59408 87.2147 -3.07414 76.523 26.8408 52.228 77.0871 -0.97668 17.3199 4.60122 23.1419 -17.0392 16.177 2.77468 21.2781 0.735556 -7.31379 -4.08064 -0.343242 -1.53616e-009 1.56004e-007 -4.85535e-009 
-24.2175 97.9674 -91.7578 2.67068 6.67286 175.618 -17.5284 3.6876 -1.6009 9.24228 22.3079 2.34527 1.75789 -2.00278 -0.136927 0.0462048 0.000533403 0.662642 4.98072 10.8654 0.409317 -0.0231379 0.0304091 -0.10863 -28.0539 15.1357 39.9569 -8.94531e-016 7.95139e-016 3.97569e-016 -109.813 -79.5622 -96.7327 -22.9503 56.3727 -88.0863 -1.19076 40.3109 28.9224 8.88709 4.06116 -4.62695 87.3952 -2.30831 76.3804 20.2006 51.7801 80.8159 -0.03711 14.9266 6.37315 24.3936 -17.148 12.91 -0.812483 23.7039 10.2501 -2.25139 -4.14805 -0.0431586 -1.53617e-009 1.56004e-007 -4.85535e-009 
-25.0784 96.503 -92.8058 2.81815 6.8229 175.488 -17.7852 -0.949595 -1.36662 7.71202 31.8414 -0.819045 3.37819 -3.85212 0.208461 0.0462048 0.000533403 0.662642 4.39786 12.0905 -3.1399 -0.023077 0.0273192 -0.0966697 -25.7522 10.4772 41.5319 6.95746e-016 0 -1.59028e-015 -73.3263 -77.752 -67.3698 -8.0599 50.2968 -87.3788 10.612 28.816 17.1518 9.0281 3.56059 -2.40808 87.5364 -1.8809 76.2374 16.6696 51.5169 83.2845 0.575955 12.7748 7.12582 26.575 -20.1573 10.2375 -6.60979 31.8307 20.0666 2.63879 -8.23345 0.21962 -1.53617e-009 1.56004e-007 -4.85536e-009 
-26.0529 94.9137 -93.7392 3.0083 7.01383 175.257 -17.6699 -6.11756 -1.28076 6.14477 40.8394 -2.69964 5.22276 -5.34145 0.487059 0.0462048 0.000533403 0.662642 3.93368 13.1818 -6.24773 0.000690858 -0.00907991 0.0118901 -23.4299 6.64305 43.1301 3.97569e-016 0 -0 -46.7647 -72.4415 -48.2084 0.722526 44.5627 -77.8236 5.78156 38.47 35.4626 9.14029 3.28505 -0.534534 87.7188 -1.6787 76.1444 15.0465 51.4536 84.9024 0.880501 12.6641 7.30191 28.7699 -22.4301 7.95288 -14.3313 37.0744 30.6419 7.75105 -11.4838 0.578364 -1.53617e-009 1.56004e-007 -4.85536e-009 
-27.1474 93.2015 -94.5667 3.22036 7.22868 174.945 -17.4561 -11.8004 -1.38578 4.49844 49.8926 -3.41409 7.03265 -6.59646 0.785088 0.0462048 0.000533403 0.662642 3.54208 14.1328 -8.91651 0.00210133 -0.00908985 0.01838 -21.1339 3.44918 44.8328 -2.20695e-032 -7.95139e-016 -1.59028e-015 -31.1411 -65.2956 -40.3606 4.42063 40.061 -61.663 14.8971 32.4259 28.5154 9.20685 3.17343 1.21352 88.0046 -1.62615 76.1368 14.5878 51.5444 85.9038 1.06916 12.3255 7.19323 30.8835 -24.2769 6.05437 -22.8382 40.3753 41.3257 12.7608 -14.3361 1.02505 -1.53616e-009 1.56004e-007 -4.85535e-009 
-28.3489 91.3674 -95.2995 3.42751 7.44182 174.566 -17.3486 -17.8985 -1.74923 2.50468 59.1279 -2.7866 9.05913 -7.71069 1.17564 0.0462048 0.000533403 0.662642 3.1816 14.9395 -11.1575 0.00210104 -0.00709419 0.0211772 -18.9484 0.900267 46.4994 -0 -1.59028e-015 -0 -22.081 -57.6891 -39.7539 3.27979 36.7414 -40.4375 -0.610395 27.8497 32.1236 9.18163 3.19691 2.76133 88.4287 -1.65583 76.2173 14.8062 51.736 86.4325 1.15723 12.9162 6.91983 32.85 -25.8421 4.53057 -31.3603 42.3588 51.5728 17.5002 -16.9801 1.56796 -1.53616e-009 1.56004e-007 -4.85535e-009 
-29.6503 89.473 -96.0099 3.60938 7.63705 174.14 -17.3853 -23.2545 -1.99125 0.15088 67.4596 -1.13146 11.0858 -8.85769 1.66385 0.0462048 0.000533403 0.662642 2.82692 15.6067 -12.997 0.00210023 -0.00452551 0.0229869 -16.9473 -1.07928 48.0614 -7.95139e-016 1.59028e-015 -0 -17.2378 -51.0082 -43.8501 -2.42295 32.2895 -16.1502 22.9751 25.3958 14.0826 9.06642 3.29963 4.13494 88.9843 -1.7269 76.3548 15.3726 51.9737 86.5938 1.2552 13.2217 6.55361 34.567 -27.1606 3.32542 -39.3696 43.4662 61.0004 21.9086 -19.4983 2.2281 -1.53617e-009 1.56004e-007 -4.85536e-009 
-31.0397 87.5594 -96.7521 3.76555 7.79832 173.671 -17.585 -27.8783 -2.13138 -3.11908 74.8108 1.93651 13.1721 -10.067 2.27509 0.0462048 0.000533403 0.662642 2.46429 16.1381 -14.4483 0.00210031 -0.00452551 0.0239625 -15.1789 -2.56979 49.4616 7.95139e-016 -1.59028e-015 -3.18055e-015 -17.0423 -46.5451 -51.9826 -7.09637 24.0509 4.94137 2.29722 20.8607 22.2598 8.90109 3.43586 5.36564 89.6253 -1.84281 76.5038 16.0806 52.2077 86.4882 1.35078 13.9478 6.13939 35.9915 -28.2892 2.40244 -46.6619 44.0896 69.5044 25.9962 -21.9365 3.02314 -1.53617e-009 1.56004e-007 -4.85536e-009 
-32.506 85.673 -97.5733 3.89014 7.9153 173.154 -17.9477 -31.7646 -2.18359 -9.11926 81.0981 8.03575 15.1187 -11.3572 2.97853 0.0462048 0.000533403 0.662642 2.09297 16.5371 -15.5218 0.00210033 -0.00452551 0.0242574 -13.6896 -3.64923 50.6514 1.76556e-031 -1.59028e-015 6.36111e-015 -15.9342 -44.5362 -55.8669 -7.75855 14.3792 7.54167 29.3717 5.19966 6.05644 8.73002 3.5863 6.48057 90.284 -1.99553 76.6202 16.7595 52.4121 86.2332 1.4698 14.4147 5.74121 37.0893 -29.2527 1.7296 -53.2318 44.504 77.149 29.7813 -24.3053 3.96422 -1.53617e-009 1.56004e-007 -4.85535e-009 
-34.0192 83.8596 -98.5431 3.98232 7.98616 172.576 -18.4601 -34.8769 -2.14114 -27.0991 86.1259 26.2485 16.9181 -12.749 3.76715 0.0462048 0.000533403 0.662642 1.72666 16.8199 -16.2296 0.00210031 -0.00452551 0.024025 -12.5049 -4.40003 51.6005 -3.97569e-016 1.59028e-015 3.18055e-015 -19.2094 -45.5705 -57.5901 -4.82378 7.05525 6.48912 35.1982 16.5752 6.85375 8.58687 3.75069 7.47822 90.8946 -2.16116 76.6673 17.2945 52.5929 85.9657 1.57965 15.0344 5.39547 37.0836 -30.2009 1.00698 -58.6143 46.7316 82.5424 32.3324 -26.1936 4.90806 -1.53617e-009 1.56004e-007 -4.85535e-009 
-35.5685 82.1474 -99.6284 4.04343 8.0132 171.928 -19.1077 -37.2623 -2.00366 -113.888 87.8616 113.274 18.5334 -14.1791 4.60526 0.0462048 0.000533403 0.662642 1.37027 16.9923 -16.5665 0.00210027 -0.00452551 0.0234185 -11.6187 -4.87005 52.2771 3.97569e-016 -3.18055e-015 -0 -23.7224 -48.5308 -56.3022 -0.139089 1.19278 4.65221 22.3197 15.9487 -9.33758 8.46443 3.94868 8.39958 91.4394 -2.40008 76.6485 17.6708 52.7523 85.7513 1.6831 15.4329 5.1245 36.9395 -31.0992 0.59504 -64.0006 48.3423 87.9836 35.2745 -28.1796 6.15536 -1.53616e-009 1.56004e-007 -4.85535e-009 
-36.3679 82.2119 -99.1093 4.07896 7.99372 171.209 -19.5168 -39.0821 -2.31569 -107.748 87.7842 105.963 28.1637 -12.4748 6.02204 0.0462048 0.000533403 0.662642 1.02868 17.0658 -16.539 0.0021002 -0.00452551 0.0225915 -10.9972 -5.10939 52.6638 -3.53113e-031 -3.18055e-015 -6.36111e-015 -28.8075 -52.9976 -53.3604 -0.104491 -1.31509 -5.70202 23.0512 24.0684 -7.49981 8.35883 4.17998 9.22337 91.908 -2.72254 76.5632 17.9201 52.8958 85.6318 1.77889 15.8725 4.90213 35.8843 -31.2163 0.105069 -62.9096 48.0463 86.543 39.4955 -26.2592 7.28768 -1.53616e-009 1.56004e-007 -4.85536e-009 
-37.209 82.4533 -98.674 4.09554 7.92541 170.437 -18.5262 -40.8014 -2.52307 -111.328 87.5978 107.436 22.6771 -12.2402 4.94456 0.0462048 0.000533403 0.662642 0.708896 17.0504 -16.1648 0.00210013 -0.00452551 0.0216971 -10.5947 -5.15056 52.7493 8.82781e-032 -1.59028e-015 3.18055e-015 -34.8031 -59.3176 -50.3732 -5.80936 1.43331 -22.9911 20.9048 30.1102 -2.12572 8.26775 4.4333 9.96125 92.3 -3.17947 76.4094 18.0962 53.024 85.611 1.87772 16.1671 4.71545 34.7325 -31.221 -0.190293 -61.452 47.7576 84.7254 43.5165 -24.2389 8.24081 -1.53616e-009 1.56004e-007 -4.85535e-009 
-38.0243 82.7822 -98.3276 4.10487 7.8126 169.653 -18.8867 -40.4557 -2.98663 -69.8804 87.7832 65.5414 24.3849 -11.3283 4.94976 0.0462048 0.000533403 0.662642 0.413693 16.9858 -15.5065 0.00210007 -0.00452551 0.0208888 -10.3362 -5.04571 52.5497 7.95139e-016 -1.59028e-015 3.18055e-015 -43.544 -67.0933 -50.177 -13.1884 10.1371 -39.4109 33.1962 19.852 -8.63707 8.21641 4.67309 10.5558 92.6073 -3.7507 76.1672 18.2623 53.1386 85.7156 1.98145 16.4909 4.53074 33.6057 -31.1482 -0.310133 -59.8175 47.5534 82.7179 47.1991 -22.2054 8.95346 -1.53616e-009 1.56004e-007 -4.85535e-009 
-38.8623 83.2608 -98.0929 4.12458 7.65784 168.902 -19.4168 -38.9467 -3.54263 -24.5218 86.1891 20.2236 22.4062 -10.9271 4.42786 0.0462048 0.000533403 0.662642 0.162464 16.888 -14.624 0.00210002 -0.00452551 0.02032 -10.1692 -4.81353 52.0762 7.95139e-016 0 -0 -59.5697 -75.6744 -58.0351 -20.5564 22.5592 -53.1831 28.9295 33.3651 4.25418 8.21686 4.8872 11.0507 92.834 -4.50276 75.8454 18.4639 53.2346 85.9288 2.09254 16.7557 4.35364 32.4053 -30.93 -0.344423 -57.8204 47.3607 80.3581 50.5683 -20.1335 9.44733 -1.53616e-009 1.56004e-007 -4.85536e-009 
-39.7025 83.8536 -97.9936 4.17858 7.46224 168.231 -20.4596 -36.3527 -3.96321 -4.09655 82.7505 0.686957 22.1017 -10.47 4.23053 0.0462048 0.000533403 0.662642 -0.0236002 16.7728 -13.5899 0.00209994 -0.00452551 0.01933 -10.0393 -4.47864 51.3512 1.76556e-031 -3.18055e-015 3.18055e-015 -104.127 -81.9105 -95.2608 -28.3548 35.4208 -62.6177 34.7033 15.2719 -4.88975 8.30325 5.06347 11.3825 92.9719 -5.38909 75.4375 18.7177 53.3201 86.2721 2.21399 17.0709 4.16947 31.1523 -30.5566 -0.341033 -55.5118 47.1613 77.6988 53.5993 -18.0784 9.72247 -1.53618e-009 1.56004e-007 -4.85535e-009 
